<svg width="215" height="31" viewBox="0 0 215 31" fill="none" xmlns="http://www.w3.org/2000/svg">
<path d="M24.4631 0.767816H16.5034L12.0447 23.9982C11.9886 24.2479 11.8575 24.4547 11.6489 24.6185C11.4403 24.785 11.2102 24.8682 10.9615 24.8682H7.21163C6.96022 24.8682 6.76764 24.785 6.62856 24.6185C6.48948 24.452 6.44669 24.2452 6.50285 23.9982L8.21196 15.22H1.1268L0.209396 20.0643C-0.290764 22.6045 0.105083 24.8414 1.39694 26.7721C2.6888 28.7055 4.55571 29.7957 7.00301 30.0428C7.14209 30.0696 7.79471 30.083 8.96086 30.083C11.6837 30.0562 14.1898 29.0895 16.482 27.1829C18.7742 25.2791 20.1837 22.9724 20.7133 20.2683L24.4631 0.765137V0.767816Z" fill="#211F21"/>
<path d="M42.4437 18.0988C42.2083 17.1456 41.8045 16.3802 41.2348 15.8002C40.6651 15.2202 39.9911 14.6832 39.2127 14.1837C38.4344 13.6869 37.6293 13.2868 36.7948 12.9834C35.9604 12.6799 35.1687 12.3282 34.4198 11.928C33.6709 11.5279 33.0289 11.1413 32.502 10.768C31.9751 10.3947 31.6194 9.8765 31.4402 9.21592C31.261 8.55534 31.3359 7.82225 31.6702 7.02204C32.0313 6.02848 32.7668 5.4055 33.8795 5.15845C34.9895 4.90872 36.1369 4.96511 37.3191 5.32494C38.4986 5.68476 39.5899 6.24331 40.5902 7.00056C41.5905 7.76049 42.2003 8.56875 42.425 9.42267L44.4684 3.54191L44.217 3.16866C44.0512 2.94846 43.765 2.67994 43.3638 2.36039C42.9599 2.04353 42.4892 1.72666 41.9462 1.40711C41.4033 1.09025 40.6811 0.821718 39.7798 0.598839C38.8757 0.378646 37.9262 0.268555 36.9259 0.268555C30.2018 0.268555 26.0615 2.82225 24.5075 7.92966C24.0903 9.47638 23.9726 10.7465 24.1518 11.7401C24.331 12.7336 24.7134 13.6037 25.2992 14.3475C25.8823 15.094 26.583 15.6874 27.4041 16.1278C28.2226 16.5709 29.0437 17.0193 29.8622 17.4732C30.6806 17.9297 31.4188 18.3647 32.0714 18.7782C32.724 19.1917 33.1814 19.7369 33.4462 20.4135C33.711 21.0902 33.6762 21.869 33.3419 22.7524C33.0905 23.4425 32.6598 23.9688 32.05 24.326C31.4375 24.6858 30.8197 24.8496 30.1965 24.8228C29.5706 24.7959 28.9661 24.7395 28.3831 24.6563C27.0484 24.2965 25.7566 23.7325 24.5075 22.9592L20.7148 27.4731L21.6724 28.0532C22.3384 28.4667 23.3654 28.8668 24.7562 29.2535C26.1444 29.6402 27.5914 29.8335 29.0892 29.8335C31.2556 29.8335 33.2697 29.522 35.1312 28.9017C36.9928 28.2814 38.5895 27.3147 39.9242 26.0016C41.2588 24.6912 42.104 23.1525 42.4678 21.3856C42.6898 20.1423 42.6818 19.0467 42.4464 18.0935L42.4437 18.0988Z" fill="#211F21"/>
<path d="M63.1745 0.728027H48.0065L42.4219 29.7156H50.3816L55.0917 5.28495H59.3845C60.0772 5.28495 60.6202 5.52663 61.0107 6.00998C61.3985 6.49333 61.5376 7.0814 61.428 7.76884L57.1779 29.7156H65.1377L69.2647 8.22534C69.6819 6.15499 69.2914 4.38806 68.0985 2.92459C66.903 1.46111 65.2634 0.730715 63.1798 0.730715L63.1745 0.728027Z" fill="#211F21"/>
<path d="M98.5202 1.13867L92.9355 30.086H100.895L106.48 1.13867H98.5202Z" fill="#211F21"/>
<path d="M92.4888 4.06559C91.1969 2.11876 89.33 1.02048 86.8827 0.768063C86.7436 0.74121 86.091 0.725098 84.9249 0.725098C82.2021 0.754636 79.6959 1.72671 77.4038 3.64669C75.1116 5.56666 73.702 7.88943 73.1725 10.615L72.8809 12.1402L71.0247 11.0849L69.7623 15.1961L72.0491 16.4958L69.4199 30.2686H77.3797L79.2252 20.5747L82.9804 22.7068L84.2428 18.5957L80.057 16.2165L81.841 6.85829C81.8972 6.60856 82.0282 6.3991 82.2368 6.23261C82.4455 6.06613 82.6755 5.98288 82.9242 5.98288H86.6741C86.9255 5.98288 87.1181 6.06613 87.2572 6.23261C87.3963 6.3991 87.4391 6.60856 87.3829 6.85829L85.6738 15.7063H92.7589L93.6763 10.8244C94.1765 8.26537 93.7807 6.01242 92.4888 4.06559Z" fill="#211F21"/>
<path d="M127.689 1.05811H107.351L106.434 5.86207H115.185C114.38 6.1118 113.677 6.56025 113.08 7.2074C112.484 7.85724 112.101 8.57958 111.935 9.38248L107.934 30.086H115.894L120.561 5.86207H126.772L127.689 1.05811Z" fill="#211F21"/>
<path d="M148.736 3.29251C147.54 1.82903 145.901 1.09863 143.817 1.09863H128.649L123.064 30.0862H131.024L135.734 5.65556H140.027C140.72 5.65556 141.263 5.89723 141.653 6.38059C142.041 6.86394 142.18 7.45201 142.071 8.13944L137.821 30.0862H145.78L149.907 8.59594C150.325 6.52559 149.934 4.75867 148.741 3.29519L148.736 3.29251Z" fill="#211F21"/>
<path d="M157.361 24.2458C157.248 24.1088 157.208 23.9289 157.235 23.7087L158.484 17.2909H168.11L169.027 12.6104H159.401L160.567 6.60615C160.594 6.41281 160.698 6.24094 160.88 6.08788C161.06 5.93751 161.247 5.85964 161.442 5.85964H173.443L174.361 1.22215L157.775 1.09863C156.636 1.09863 155.587 1.49337 154.63 2.28016C153.672 3.06694 153.081 4.02559 152.859 5.15878L148.858 25.9885C148.636 27.1217 148.852 28.0857 149.502 28.8886C150.152 29.6915 151.038 30.0889 152.148 30.0889H168.776L169.859 24.4579H157.858C157.636 24.4579 157.467 24.3881 157.358 24.2511L157.361 24.2458Z" fill="#211F21"/>
<path d="M191.719 18.4694C191.484 17.5161 191.08 16.7508 190.51 16.1708C189.94 15.5908 189.266 15.0538 188.488 14.5543C187.71 14.0575 186.905 13.6574 186.07 13.354C185.236 13.0505 184.444 12.6988 183.695 12.2986C182.946 11.8985 182.304 11.5119 181.777 11.1386C181.251 10.7654 180.895 10.2471 180.716 9.58652C180.536 8.92594 180.611 8.19286 180.946 7.39264C181.307 6.39909 182.042 5.7761 183.155 5.52906C184.265 5.27933 185.412 5.33571 186.594 5.69554C187.774 6.05537 188.865 6.61391 189.866 7.37116C190.866 8.13109 191.476 8.93936 191.7 9.79328L193.744 3.91252L193.492 3.53926C193.327 3.31907 193.04 3.05054 192.639 2.73099C192.235 2.41413 191.765 2.09727 191.222 1.77772C190.679 1.46085 189.957 1.19232 189.055 0.969445C188.151 0.749251 187.202 0.63916 186.201 0.63916C179.477 0.63916 175.337 3.19285 173.783 8.30026C173.366 9.84698 173.248 11.1171 173.427 12.1107C173.606 13.1042 173.989 13.9743 174.575 14.7181C175.158 15.4646 175.858 16.058 176.68 16.4984C177.498 16.9415 178.319 17.39 179.138 17.8438C179.956 18.3003 180.694 18.7353 181.347 19.1488C181.999 19.5623 182.457 20.1075 182.722 20.7842C182.986 21.4608 182.952 22.2396 182.617 23.123C182.366 23.8131 181.935 24.3394 181.325 24.6966C180.713 25.0564 180.095 25.2202 179.472 25.1934C178.846 25.1665 178.242 25.1101 177.658 25.0269C176.324 24.6671 175.032 24.1032 173.783 23.3298L169.99 27.8438L170.948 28.4238C171.614 28.8373 172.641 29.2374 174.032 29.6241C175.42 30.0108 176.867 30.2041 178.365 30.2041C180.531 30.2041 182.545 29.8926 184.407 29.2723C186.268 28.652 187.865 27.6853 189.2 26.3722C190.534 25.0618 191.379 23.5231 191.743 21.7562C191.965 20.5129 191.957 19.4173 191.722 18.4641L191.719 18.4694Z" fill="#211F21"/>
<path d="M211.766 16.1708C211.196 15.5908 210.522 15.0538 209.744 14.5543C208.966 14.0575 208.161 13.6574 207.326 13.354C206.492 13.0505 205.7 12.6988 204.951 12.2986C204.202 11.8985 203.56 11.5119 203.033 11.1386C202.506 10.7654 202.151 10.2471 201.971 9.58652C201.79 8.92326 201.867 8.19286 202.201 7.39264C202.563 6.39909 203.298 5.7761 204.411 5.52906C205.521 5.27933 206.668 5.33571 207.85 5.69554C209.03 6.05537 210.121 6.61391 211.121 7.37116C212.122 8.13109 212.732 8.93936 212.956 9.79328L215 3.91252L214.748 3.53926C214.582 3.31907 214.296 3.05054 213.895 2.73099C213.491 2.41413 213.02 2.09727 212.477 1.77772C211.935 1.46085 211.212 1.19232 210.311 0.969445C209.407 0.749251 208.457 0.63916 207.457 0.63916C200.733 0.63916 196.593 3.19285 195.039 8.30026C194.622 9.84698 194.504 11.1171 194.683 12.1107C194.862 13.1042 195.245 13.9743 195.83 14.7181C196.414 15.4646 197.114 16.058 197.935 16.4984C198.754 16.9415 199.575 17.39 200.393 17.8438C201.212 18.3003 201.95 18.7353 202.603 19.1488C203.255 19.5623 203.713 20.1075 203.977 20.7842C204.242 21.4608 204.207 22.2396 203.873 23.123C203.622 23.8131 203.191 24.3394 202.581 24.6966C201.969 25.0564 201.351 25.2202 200.728 25.1934C200.102 25.1665 199.497 25.1101 198.914 25.0269C197.58 24.6671 196.288 24.1032 195.039 23.3298L191.246 27.8438L192.204 28.4238C192.87 28.8373 193.897 29.2374 195.287 29.6241C196.676 30.0108 198.123 30.2041 199.62 30.2041C201.787 30.2041 203.801 29.8926 205.662 29.2723C207.524 28.652 209.121 27.6853 210.455 26.3722C211.79 25.0618 212.635 23.5231 212.999 21.7562C213.221 20.5129 213.213 19.4173 212.978 18.4641C212.742 17.5108 212.338 16.7455 211.769 16.1655L211.766 16.1708Z" fill="#211F21"/>
</svg>
