<svg width="215" height="30" viewBox="0 0 215 30" fill="none" xmlns="http://www.w3.org/2000/svg">
<path d="M24.4631 0.49975H16.5034L12.0447 23.7301C11.9886 23.9799 11.8575 24.1866 11.6489 24.3504C11.4403 24.5169 11.2102 24.6002 10.9615 24.6002H7.21163C6.96022 24.6002 6.76764 24.5169 6.62856 24.3504C6.48948 24.1839 6.44669 23.9772 6.50285 23.7301L8.21196 14.9519H1.1268L0.209396 19.7962C-0.290764 22.3365 0.105083 24.5733 1.39694 26.504C2.6888 28.4374 4.55571 29.5277 7.00301 29.7747C7.14209 29.8016 7.79471 29.815 8.96086 29.815C11.6837 29.7881 14.1898 28.8214 16.482 26.9149C18.7742 25.011 20.1837 22.7043 20.7133 20.0003L24.4631 0.49707V0.49975Z" fill="#F1F0ED"/>
<path d="M42.4437 17.8303C42.2083 16.877 41.8045 16.1117 41.2348 15.5317C40.6651 14.9516 39.9911 14.4146 39.2127 13.9151C38.4344 13.4184 37.6293 13.0182 36.7948 12.7148C35.9604 12.4114 35.1687 12.0596 34.4198 11.6595C33.6709 11.2594 33.0289 10.8727 32.502 10.4994C31.9751 10.1262 31.6194 9.60794 31.4402 8.94736C31.261 8.28678 31.3359 7.5537 31.6702 6.75348C32.0313 5.75993 32.7668 5.13694 33.8795 4.8899C34.9895 4.64016 36.1369 4.69655 37.3191 5.05638C38.4986 5.41621 39.5899 5.97475 40.5902 6.732C41.5905 7.49194 42.2003 8.3002 42.425 9.15412L44.4684 3.27336L44.217 2.9001C44.0512 2.67991 43.765 2.41139 43.3638 2.09184C42.9599 1.77497 42.4892 1.45811 41.9462 1.13856C41.4033 0.821694 40.6811 0.553163 39.7798 0.330284C38.8757 0.110091 37.9262 0 36.9259 0C30.2018 0 26.0615 2.55369 24.5075 7.6611C24.0903 9.20782 23.9726 10.478 24.1518 11.4715C24.331 12.4651 24.7134 13.3351 25.2992 14.0789C25.8823 14.8254 26.583 15.4189 27.4041 15.8593C28.2226 16.3023 29.0437 16.7508 29.8622 17.2046C30.6806 17.6611 31.4188 18.0961 32.0714 18.5096C32.724 18.9232 33.1814 19.4683 33.4462 20.145C33.711 20.8217 33.6762 21.6004 33.3419 22.4839C33.0905 23.174 32.6598 23.7003 32.05 24.0574C31.4375 24.4173 30.8197 24.5811 30.1965 24.5542C29.5706 24.5274 28.9661 24.471 28.3831 24.3877C27.0484 24.0279 25.7566 23.464 24.5075 22.6906L20.7148 27.2046L21.6724 27.7846C22.3384 28.1981 23.3654 28.5983 24.7562 28.9849C26.1444 29.3716 27.5914 29.5649 29.0892 29.5649C31.2556 29.5649 33.2697 29.2535 35.1312 28.6332C36.9928 28.0129 38.5895 27.0462 39.9242 25.7331C41.2588 24.4226 42.104 22.884 42.4678 21.1171C42.6898 19.8738 42.6818 18.7782 42.4464 17.8249L42.4437 17.8303Z" fill="#F1F0ED"/>
<path d="M63.1745 0.458984H48.0065L42.4219 29.4466H50.3816L55.0917 5.01591H59.3845C60.0772 5.01591 60.6202 5.25759 61.0107 5.74094C61.3985 6.22429 61.5376 6.81236 61.428 7.49979L57.1779 29.4466H65.1377L69.2647 7.95629C69.6819 5.88594 69.2914 4.11902 68.0985 2.65554C66.903 1.19206 65.2634 0.461672 63.1798 0.461672L63.1745 0.458984Z" fill="#F1F0ED"/>
<path d="M98.5202 0.870117L92.9355 29.8175H100.895L106.48 0.870117H98.5202Z" fill="#F1F0ED"/>
<path d="M92.4888 3.79752C91.1969 1.85069 89.33 0.752413 86.8827 0.499997C86.7436 0.473144 86.091 0.457031 84.9249 0.457031C82.2021 0.486569 79.6959 1.45864 77.4038 3.37862C75.1116 5.2986 73.702 7.62136 73.1725 10.3469L72.8809 11.8722L71.0247 10.8168L69.7623 14.928L72.0491 16.2277L69.4199 30.0005H77.3797L79.2252 20.3066L82.9804 22.4388L84.2428 18.3276L80.057 15.9484L81.841 6.59022C81.8972 6.34049 82.0282 6.13103 82.2368 5.96455C82.4455 5.79806 82.6755 5.71482 82.9242 5.71482H86.6741C86.9255 5.71482 87.1181 5.79806 87.2572 5.96455C87.3963 6.13103 87.4391 6.34049 87.3829 6.59022L85.6738 15.4382H92.7589L93.6763 10.5564C94.1765 7.99731 93.7807 5.74435 92.4888 3.79752Z" fill="#F1F0ED"/>
<path d="M127.689 0.789062H107.351L106.434 5.59303H115.185C114.38 5.84276 113.677 6.2912 113.08 6.93836C112.484 7.58819 112.101 8.31054 111.935 9.11344L107.934 29.817H115.894L120.561 5.59303H126.772L127.689 0.789062Z" fill="#F1F0ED"/>
<path d="M148.736 3.02298C147.54 1.5595 145.901 0.829102 143.817 0.829102H128.649L123.064 29.8167H131.024L135.734 5.38602H140.027C140.72 5.38602 141.263 5.6277 141.653 6.11105C142.041 6.5944 142.18 7.18248 142.071 7.86991L137.821 29.8167H145.78L149.907 8.32641C150.325 6.25606 149.934 4.48914 148.741 3.02566L148.736 3.02298Z" fill="#F1F0ED"/>
<path d="M157.361 23.9762C157.248 23.8393 157.208 23.6594 157.235 23.4392L158.484 17.0214H168.11L169.027 12.3409H159.401L160.567 6.33662C160.594 6.14328 160.698 5.97141 160.88 5.81835C161.06 5.66798 161.247 5.59011 161.442 5.59011H173.443L174.361 0.952622L157.775 0.829102C156.636 0.829102 155.587 1.22384 154.63 2.01062C153.672 2.79741 153.081 3.75606 152.859 4.88925L148.858 25.719C148.636 26.8522 148.852 27.8162 149.502 28.6191C150.152 29.422 151.038 29.8194 152.148 29.8194H168.776L169.859 24.1884H157.858C157.636 24.1884 157.467 24.1186 157.358 23.9816L157.361 23.9762Z" fill="#F1F0ED"/>
<path d="M191.719 18.2014C191.484 17.2481 191.08 16.4828 190.51 15.9028C189.94 15.3227 189.266 14.7857 188.488 14.2862C187.71 13.7894 186.905 13.3893 186.07 13.0859C185.236 12.7825 184.444 12.4307 183.695 12.0306C182.946 11.6305 182.304 11.2438 181.777 10.8705C181.251 10.4973 180.895 9.97903 180.716 9.31845C180.536 8.65788 180.611 7.92479 180.946 7.12458C181.307 6.13102 182.042 5.50804 183.155 5.26099C184.265 5.01126 185.412 5.06765 186.594 5.42748C187.774 5.7873 188.865 6.34584 189.866 7.10309C190.866 7.86302 191.476 8.67129 191.7 9.52521L193.744 3.64445L193.492 3.27119C193.327 3.051 193.04 2.78247 192.639 2.46292C192.235 2.14606 191.765 1.8292 191.222 1.50965C190.679 1.19279 189.957 0.924257 189.055 0.701378C188.151 0.481185 187.202 0.371094 186.201 0.371094C179.477 0.371094 175.337 2.92479 173.783 8.03219C173.366 9.57892 173.248 10.8491 173.427 11.8426C173.606 12.8362 173.989 13.7062 174.575 14.45C175.158 15.1965 175.858 15.79 176.68 16.2304C177.498 16.6734 178.319 17.1219 179.138 17.5757C179.956 18.0322 180.694 18.4672 181.347 18.8807C181.999 19.2943 182.457 19.8394 182.722 20.5161C182.986 21.1928 182.952 21.9715 182.617 22.855C182.366 23.5451 181.935 24.0714 181.325 24.4285C180.713 24.7884 180.095 24.9522 179.472 24.9253C178.846 24.8985 178.242 24.8421 177.658 24.7588C176.324 24.399 175.032 23.8351 173.783 23.0617L169.99 27.5757L170.948 28.1557C171.614 28.5692 172.641 28.9693 174.032 29.356C175.42 29.7427 176.867 29.936 178.365 29.936C180.531 29.936 182.545 29.6246 184.407 29.0043C186.268 28.384 187.865 27.4173 189.2 26.1042C190.534 24.7937 191.379 23.2551 191.743 21.4882C191.965 20.2449 191.957 19.1493 191.722 18.196L191.719 18.2014Z" fill="#F1F0ED"/>
<path d="M211.766 15.9028C211.196 15.3227 210.522 14.7857 209.744 14.2862C208.966 13.7894 208.161 13.3893 207.326 13.0859C206.492 12.7825 205.7 12.4307 204.951 12.0306C204.202 11.6305 203.56 11.2438 203.033 10.8705C202.506 10.4973 202.151 9.97903 201.971 9.31845C201.79 8.65519 201.867 7.92479 202.201 7.12458C202.563 6.13102 203.298 5.50804 204.411 5.26099C205.521 5.01126 206.668 5.06765 207.85 5.42748C209.03 5.7873 210.121 6.34584 211.121 7.10309C212.122 7.86302 212.732 8.67129 212.956 9.52521L215 3.64445L214.748 3.27119C214.582 3.051 214.296 2.78247 213.895 2.46292C213.491 2.14606 213.02 1.8292 212.477 1.50965C211.935 1.19279 211.212 0.924257 210.311 0.701378C209.407 0.481185 208.457 0.371094 207.457 0.371094C200.733 0.371094 196.593 2.92479 195.039 8.03219C194.622 9.57892 194.504 10.8491 194.683 11.8426C194.862 12.8362 195.245 13.7062 195.83 14.45C196.414 15.1965 197.114 15.79 197.935 16.2304C198.754 16.6734 199.575 17.1219 200.393 17.5757C201.212 18.0322 201.95 18.4672 202.603 18.8807C203.255 19.2943 203.713 19.8394 203.977 20.5161C204.242 21.1928 204.207 21.9715 203.873 22.855C203.622 23.5451 203.191 24.0714 202.581 24.4285C201.969 24.7884 201.351 24.9522 200.728 24.9253C200.102 24.8985 199.497 24.8421 198.914 24.7588C197.58 24.399 196.288 23.8351 195.039 23.0617L191.246 27.5757L192.204 28.1557C192.87 28.5692 193.897 28.9693 195.287 29.356C196.676 29.7427 198.123 29.936 199.62 29.936C201.787 29.936 203.801 29.6246 205.662 29.0043C207.524 28.384 209.121 27.4173 210.455 26.1042C211.79 24.7937 212.635 23.2551 212.999 21.4882C213.221 20.2449 213.213 19.1493 212.978 18.196C212.742 17.2427 212.338 16.4774 211.769 15.8974L211.766 15.9028Z" fill="#F1F0ED"/>
</svg>
