<svg width="157" height="22" viewBox="0 0 157 22" fill="none" xmlns="http://www.w3.org/2000/svg">
<path d="M17.8638 0.363277H12.0513L8.79545 17.2597C8.75443 17.4413 8.65873 17.5917 8.50639 17.7109C8.35404 17.832 8.18608 17.8925 8.00444 17.8925H5.26617C5.08257 17.8925 4.94195 17.832 4.84039 17.7109C4.73883 17.5898 4.70758 17.4394 4.74859 17.2597L5.99663 10.875H0.822826L0.152907 14.3984C-0.212325 16.246 0.0767348 17.873 1.02009 19.2773C1.96345 20.6835 3.32672 21.4765 5.11382 21.6562C5.21539 21.6757 5.69195 21.6854 6.54351 21.6854C8.53178 21.6659 10.3618 20.9628 12.0357 19.5761C13.7095 18.1913 14.7388 16.5136 15.1255 14.5468L17.8638 0.361328V0.363277Z" fill="#F1F0ED"/>
<path d="M30.9941 12.9687C30.8222 12.2753 30.5273 11.7187 30.1113 11.2968C29.6952 10.8749 29.2031 10.4843 28.6347 10.1211C28.0664 9.75973 27.4785 9.46871 26.8691 9.248C26.2597 9.0273 25.6816 8.77144 25.1347 8.48043C24.5878 8.18941 24.1191 7.90816 23.7343 7.63668C23.3496 7.3652 23.0898 6.98825 22.9589 6.50779C22.8281 6.02732 22.8828 5.49412 23.1269 4.91209C23.3906 4.18943 23.9277 3.73631 24.7402 3.55662C25.5507 3.37498 26.3886 3.416 27.2519 3.67772C28.1132 3.93943 28.9101 4.34569 29.6406 4.89646C30.371 5.4492 30.8163 6.03708 30.9804 6.65817L32.4726 2.38085L32.289 2.10936C32.1679 1.94921 31.9589 1.7539 31.6659 1.52148C31.371 1.29101 31.0273 1.06054 30.6308 0.82812C30.2343 0.597652 29.707 0.402338 29.0488 0.24023C28.3886 0.080074 27.6953 0 26.9648 0C22.0547 0 19.0312 1.85741 17.8965 5.57224C17.5918 6.69723 17.5058 7.62106 17.6367 8.34371C17.7676 9.06636 18.0469 9.69918 18.4746 10.2402C18.9004 10.7832 19.4121 11.2148 20.0117 11.5351C20.6094 11.8574 21.209 12.1835 21.8066 12.5136C22.4043 12.8456 22.9433 13.1621 23.4199 13.4628C23.8964 13.7636 24.2304 14.1601 24.4238 14.6523C24.6171 15.1445 24.5918 15.7109 24.3476 16.3534C24.164 16.8554 23.8496 17.2382 23.4043 17.498C22.957 17.7597 22.5058 17.8788 22.0508 17.8593C21.5937 17.8398 21.1523 17.7988 20.7265 17.7382C19.7519 17.4765 18.8086 17.0663 17.8965 16.5038L15.127 19.787L15.8262 20.2089C16.3125 20.5097 17.0625 20.8007 18.0781 21.0819C19.0918 21.3632 20.1484 21.5038 21.2422 21.5038C22.8242 21.5038 24.2949 21.2773 25.6543 20.8261C27.0136 20.3749 28.1796 19.6718 29.1542 18.7167C30.1288 17.7636 30.746 16.6445 31.0116 15.3593C31.1738 14.455 31.1679 13.6581 30.996 12.9648L30.9941 12.9687Z" fill="#F1F0ED"/>
<path d="M46.1327 0.333984H35.0566L30.9785 21.4179H36.791L40.2304 3.64842H43.3652C43.871 3.64842 44.2675 3.82421 44.5527 4.17577C44.8359 4.52733 44.9374 4.95506 44.8574 5.45506L41.7539 21.4179H47.5663L50.58 5.78709C50.8847 4.28124 50.5995 2.99608 49.7284 1.93163C48.8554 0.867184 47.6581 0.335939 46.1367 0.335939L46.1327 0.333984Z" fill="#F1F0ED"/>
<path d="M71.9433 0.632812L67.8652 21.6874H73.6777L77.7558 0.632812H71.9433Z" fill="#F1F0ED"/>
<path d="M67.539 2.76171C66.5956 1.3457 65.2324 0.546875 63.4453 0.363282C63.3437 0.343751 62.8671 0.332031 62.0156 0.332031C60.0273 0.353516 58.1972 1.06054 56.5234 2.45702C54.8496 3.8535 53.8203 5.54294 53.4336 7.52536L53.2207 8.63474L51.8652 7.86715L50.9434 10.8574L52.6133 11.8027L50.6934 21.8202H56.5058L57.8535 14.7695L60.5957 16.3202L61.5175 13.33L58.4609 11.5996L59.7636 4.79295C59.8046 4.61131 59.9003 4.45897 60.0527 4.33787C60.205 4.21678 60.373 4.15624 60.5546 4.15624H63.2929C63.4765 4.15624 63.6171 4.21678 63.7187 4.33787C63.8203 4.45897 63.8515 4.61131 63.8105 4.79295L62.5624 11.2285H67.7363L68.4062 7.67771C68.7714 5.81639 68.4823 4.17772 67.539 2.76171Z" fill="#F1F0ED"/>
<path d="M93.2421 0.574219H78.3906L77.7207 4.06834H84.1113C83.5234 4.24998 83.0097 4.57615 82.5742 5.04685C82.1386 5.51951 81.8594 6.0449 81.7383 6.62888L78.8164 21.6874H84.6289L88.0371 4.06834H92.5722L93.2421 0.574219Z" fill="#F1F0ED"/>
<path d="M108.611 2.19921C107.738 1.13477 106.541 0.603516 105.019 0.603516H93.9433L89.8652 21.6874H95.6777L99.1171 3.91795H102.252C102.758 3.91795 103.154 4.09374 103.439 4.4453C103.723 4.79686 103.824 5.22459 103.744 5.72459L100.641 21.6874H106.453L109.467 6.05662C109.771 4.55077 109.486 3.26561 108.615 2.20116L108.611 2.19921Z" fill="#F1F0ED"/>
<path d="M114.909 17.4394C114.827 17.3398 114.798 17.2089 114.817 17.0488L115.73 12.3808H122.759L123.429 8.97653H116.399L117.251 4.60936C117.271 4.46874 117.347 4.34373 117.48 4.2324C117.61 4.12303 117.747 4.06639 117.89 4.06639H126.653L127.323 0.693357L115.212 0.603516C114.38 0.603516 113.614 0.890623 112.915 1.46289C112.216 2.03515 111.784 2.73241 111.622 3.55663L108.7 18.7069C108.538 19.5312 108.696 20.2323 109.171 20.8163C109.646 21.4003 110.292 21.6894 111.103 21.6894H123.245L124.036 17.5937H115.272C115.11 17.5937 114.987 17.5429 114.907 17.4433L114.909 17.4394Z" fill="#F1F0ED"/>
<path d="M140 13.2382C139.828 12.5449 139.533 11.9882 139.117 11.5664C138.701 11.1445 138.209 10.7539 137.641 10.3906C137.072 10.0293 136.484 9.73824 135.875 9.51753C135.266 9.29683 134.687 9.04097 134.141 8.74996C133.594 8.45895 133.125 8.1777 132.74 7.90621C132.355 7.63473 132.096 7.25778 131.965 6.77732C131.834 6.29685 131.889 5.76365 132.133 5.18162C132.396 4.45897 132.934 4.00584 133.746 3.82615C134.557 3.64452 135.394 3.68553 136.258 3.94725C137.119 4.20896 137.916 4.61521 138.646 5.16599C139.377 5.71872 139.822 6.30661 139.986 6.9277L141.478 2.65038L141.295 2.37889C141.174 2.21874 140.965 2.02343 140.672 1.791C140.377 1.56054 140.033 1.33007 139.637 1.09765C139.24 0.867183 138.713 0.671869 138.055 0.509761C137.394 0.349605 136.701 0.269531 135.971 0.269531C131.061 0.269531 128.037 2.12694 126.902 5.84177C126.598 6.96676 126.512 7.89059 126.643 8.61324C126.773 9.33589 127.053 9.96871 127.48 10.5097C127.906 11.0527 128.418 11.4843 129.018 11.8046C129.615 12.1269 130.215 12.4531 130.812 12.7832C131.41 13.1152 131.949 13.4316 132.426 13.7324C132.902 14.0331 133.236 14.4296 133.43 14.9218C133.623 15.414 133.598 15.9804 133.353 16.623C133.17 17.1249 132.855 17.5077 132.41 17.7675C131.963 18.0292 131.512 18.1484 131.057 18.1288C130.6 18.1093 130.158 18.0683 129.732 18.0077C128.758 17.746 127.814 17.3359 126.902 16.7734L124.133 20.0566L124.832 20.4784C125.318 20.7792 126.068 21.0702 127.084 21.3515C128.098 21.6327 129.154 21.7733 130.248 21.7733C131.83 21.7733 133.301 21.5468 134.66 21.0956C136.019 20.6444 137.185 19.9413 138.16 18.9863C139.135 18.0331 139.752 16.914 140.018 15.6288C140.18 14.7246 140.174 13.9277 140.002 13.2343L140 13.2382Z" fill="#F1F0ED"/>
<path d="M154.639 11.5664C154.223 11.1445 153.73 10.7539 153.162 10.3906C152.594 10.0293 152.006 9.73824 151.396 9.51753C150.787 9.29683 150.209 9.04097 149.662 8.74996C149.115 8.45895 148.646 8.1777 148.262 7.90621C147.877 7.63473 147.617 7.25778 147.486 6.77732C147.353 6.2949 147.41 5.76365 147.654 5.18162C147.918 4.45897 148.455 4.00584 149.268 3.82615C150.078 3.64452 150.916 3.68553 151.779 3.94725C152.641 4.20896 153.437 4.61521 154.168 5.16599C154.898 5.71872 155.344 6.30661 155.508 6.9277L157 2.65038L156.816 2.37889C156.695 2.21874 156.486 2.02343 156.193 1.791C155.898 1.56054 155.555 1.33007 155.158 1.09765C154.762 0.867183 154.234 0.671869 153.576 0.509761C152.916 0.349605 152.223 0.269531 151.492 0.269531C146.582 0.269531 143.559 2.12694 142.424 5.84177C142.119 6.96676 142.033 7.89059 142.164 8.61324C142.295 9.33589 142.574 9.96871 143.002 10.5097C143.428 11.0527 143.939 11.4843 144.539 11.8046C145.137 12.1269 145.736 12.4531 146.334 12.7832C146.932 13.1152 147.471 13.4316 147.947 13.7324C148.424 14.0331 148.758 14.4296 148.951 14.9218C149.144 15.414 149.119 15.9804 148.875 16.623C148.691 17.1249 148.377 17.5077 147.932 17.7675C147.484 18.0292 147.033 18.1484 146.578 18.1288C146.121 18.1093 145.68 18.0683 145.254 18.0077C144.279 17.746 143.336 17.3359 142.424 16.7734L139.654 20.0566L140.354 20.4784C140.84 20.7792 141.59 21.0702 142.605 21.3515C143.619 21.6327 144.676 21.7733 145.77 21.7733C147.352 21.7733 148.822 21.5468 150.182 21.0956C151.541 20.6444 152.707 19.9413 153.682 18.9863C154.656 18.0331 155.273 16.914 155.539 15.6288C155.701 14.7246 155.695 13.9277 155.523 13.2343C155.351 12.541 155.057 11.9843 154.641 11.5625L154.639 11.5664Z" fill="#F1F0ED"/>
</svg>
