<svg width="30" height="30" viewBox="0 0 30 30" fill="none" xmlns="http://www.w3.org/2000/svg">
<path d="M25.5004 28.9998C26.6602 28.9998 27.6004 28.0596 27.6004 26.8998C27.6004 25.74 26.6602 24.7998 25.5004 24.7998C24.3406 24.7998 23.4004 25.74 23.4004 26.8998C23.4004 28.0596 24.3406 28.9998 25.5004 28.9998Z" stroke="#F1F0ED" stroke-width="2" stroke-linecap="round" stroke-linejoin="round"/>
<path d="M11.4984 28.9998C12.6582 28.9998 13.5984 28.0596 13.5984 26.8998C13.5984 25.74 12.6582 24.7998 11.4984 24.7998C10.3386 24.7998 9.39844 25.74 9.39844 26.8998C9.39844 28.0596 10.3386 28.9998 11.4984 28.9998Z" stroke="#F1F0ED" stroke-width="2" stroke-linecap="round" stroke-linejoin="round"/>
<path d="M5.2 3.8H29L26.2 19.2H8L5.2 3.8ZM5.2 3.8C4.96666 2.86666 3.8 1 1 1" stroke="#F1F0ED" stroke-width="2" stroke-linecap="round" stroke-linejoin="round"/>
<path d="M26.1992 19.1997H7.99922H5.5223C3.02426 19.1997 1.69922 20.2934 1.69922 21.9997C1.69922 23.706 3.02426 24.7997 5.5223 24.7997H25.4992" stroke="#F1F0ED" stroke-width="2" stroke-linecap="round" stroke-linejoin="round"/>
</svg>
